# xmcd
#
# Track frame offsets:
#        150
#        24305
#        45052
#        70107
#        108242
#        136497
#        158845
#        181400
#        201225
#        220695
#        243717
#        266020
#        296822
#        324905
#
# Disc length: 4558 seconds
#
# Revision: 0
# Processed by: cddbd v1.5.1PL0 Copyright (c) Steve Scherf et al.
# Submitted via: ExactAudioCopy v0.95a4
#
DISCID=c611cc0e
DTITLE=Various Artist - My Left Pussyfoot
DYEAR=1999
DGENRE=Alternative
TTITLE0=Howie B - Five Days
TTITLE1=Dobie - B-Boy Anthem
TTITLE2=Inevidence - Discodaze
TTITLE3=Deep Cos - Ol Diablo
TTITLE4=Naked Funk - Helium 3
TTITLE5=Dip - Glands
TTITLE6=Sie - Praying Mantis
TTITLE7=Adi Lukovac and Ornamenti - Put (Journey)
TTITLE8=Three Wheels Out - Under The Road
TTITLE9=Minatone - The City Sleeps
TTITLE10=Spacer - The Hollow Kick
TTITLE11=Inevidence - Stuff'd
TTITLE12=Howie B - Freedom
TTITLE13=Daddylonglegs - Giddy Up
EXTD=
EXTT0=
EXTT1=
EXTT2=
EXTT3=
EXTT4=
EXTT5=
EXTT6=
EXTT7=
EXTT8=
EXTT9=
EXTT10=
EXTT11=
EXTT12=
EXTT13=
PLAYORDER=
